<svg xmlns="http://www.w3.org/2000/svg" width="1000" height="1000" viewBox="0 0 1000 1000" version="1.1"><path d="M 496 364.437 C 471.327 369.673, 453.459 383.128, 443.770 403.766 C 435.756 420.834, 434.903 438.570, 441.159 458 C 443.961 466.701, 451.282 480.846, 455.459 485.627 C 458.308 488.889, 459.130 489.325, 460.671 488.393 C 463.588 486.627, 463.353 484.499, 459.672 479.332 C 454.600 472.213, 449.319 461.135, 446.781 452.291 C 443.621 441.281, 443.652 425.316, 446.852 415.500 C 449.432 407.587, 455.084 397.526, 460.444 391.308 C 469.208 381.138, 487.291 372.571, 502.794 371.243 C 526.389 369.223, 545.266 375.299, 559.577 389.524 C 579.450 409.275, 583.600 440.075, 570.017 467.019 C 568.775 469.484, 565.788 474.486, 563.379 478.134 C 560.971 481.783, 559 485.014, 559 485.313 C 559 486.433, 562.197 489, 563.592 489 C 565.620 489, 573.726 476.141, 578.089 466 C 583.008 454.568, 585.003 445.111, 584.985 433.303 C 584.967 420.980, 583.070 412.801, 577.726 402 C 574.342 395.160, 571.761 391.742, 564.510 384.500 C 554.391 374.393, 546.314 369.731, 532.408 365.974 C 522.308 363.245, 505.051 362.516, 496 364.437 M 501.059 386.495 C 477.283 391.875, 461.147 413.746, 463.472 437.440 C 465.001 453.019, 468.914 459.554, 490.455 482.500 C 506.216 499.288, 506.471 499.503, 510.957 499.775 L 515.500 500.051 531.348 483.230 C 555.408 457.695, 558.500 451.918, 558.500 432.500 C 558.500 421.883, 558.372 421.231, 554.809 413.770 C 544.802 392.815, 522.699 381.598, 501.059 386.495 M 499.500 394.356 C 488.399 398.003, 479.549 405.683, 474.727 415.854 C 467.708 430.658, 470.073 448.234, 480.827 461.189 C 482.968 463.768, 490.745 472.171, 498.110 479.861 L 511.500 493.844 527.734 476.327 C 545.054 457.638, 548.907 451.800, 551.212 440.758 C 552.682 433.712, 551.163 423.221, 547.523 415.269 C 544.232 408.080, 536.447 400.580, 528.241 396.693 C 522.420 393.936, 520.271 393.469, 512.500 393.271 C 507.131 393.135, 501.886 393.572, 499.500 394.356 M 494.200 423.200 C 491.214 426.186, 494.526 430.859, 498.224 428.880 C 501.172 427.302, 499.843 422, 496.500 422 C 495.895 422, 494.860 422.540, 494.200 423.200 M 523.571 423.571 C 521.528 425.615, 521.589 426.318, 524 428.500 C 525.930 430.247, 526.070 430.247, 528 428.500 C 529.100 427.505, 530 426.342, 530 425.916 C 530 424.871, 527.068 422, 526 422 C 525.529 422, 524.436 422.707, 523.571 423.571 M 504.500 438.492 C 489.786 443.658, 489.057 465.581, 503.384 472.087 C 510.623 475.374, 517.757 474.170, 523.845 468.633 C 527.500 465.309, 529.286 460.998, 529.286 455.500 C 529.286 447.539, 525.321 441.703, 517.768 438.548 C 513.253 436.661, 509.757 436.647, 504.500 438.492 M 503.705 447.786 C 495.641 456.203, 503.181 468.998, 514.382 465.905 C 522.111 463.771, 524.650 453.804, 518.923 448.077 C 516.353 445.507, 515.065 445, 511.110 445 C 507.234 445, 505.890 445.506, 503.705 447.786 M 508.596 452.306 C 504.846 455.048, 508.833 461.848, 512.750 459.393 C 514.920 458.032, 515.554 454.373, 513.954 452.445 C 512.468 450.654, 510.910 450.614, 508.596 452.306 M 446 600.520 C 446 600.806, 447.163 602.882, 448.585 605.134 C 457.153 618.708, 473.253 629.764, 491.500 634.605 C 501.577 637.279, 521.688 637.088, 532.175 634.220 C 544.133 630.949, 554.329 625.417, 562.580 617.722 C 569.143 611.602, 576 602.970, 576 600.829 C 576 600.373, 574.313 600.002, 572.250 600.004 C 568.894 600.007, 568.060 600.578, 564.310 605.433 C 551.053 622.599, 528.924 630.994, 502.825 628.759 C 485.747 627.297, 468.307 618.409, 458.549 606.196 C 454.044 600.557, 453.257 600, 449.799 600 C 447.710 600, 446 600.234, 446 600.520" stroke="none" fill="#e098be" fill-rule="evenodd"/><path d="M 375.672 484.043 C 374.103 485.278, 372.807 487.554, 372.399 489.793 C 371.994 492.017, 370.223 495.143, 367.975 497.604 C 365.914 499.862, 363.921 502.674, 363.546 503.854 C 363.172 505.034, 362.518 506, 362.093 506 C 360.931 506, 359 510.753, 359 513.613 C 359 514.998, 359.466 517.002, 360.035 518.066 C 361.003 519.874, 362.308 520, 380 520 C 397.692 520, 398.997 519.874, 399.965 518.066 C 401.696 514.830, 401.132 510.568, 398.500 507 C 397.125 505.136, 396 503.115, 396 502.507 C 396 501.900, 394.266 499.599, 392.147 497.393 C 389.779 494.929, 388.031 491.978, 387.610 489.735 C 386.890 485.899, 383.054 482, 380 482 C 379.048 482, 377.101 482.919, 375.672 484.043 M 378.035 489.934 C 377.466 490.998, 377 493.136, 377 494.684 C 377 496.700, 375.935 498.412, 373.250 500.712 L 369.500 503.925 380 503.921 L 390.500 503.917 386.750 500.602 C 384.155 498.309, 383 496.454, 383 494.578 C 383 491.515, 381.397 488, 380 488 C 379.489 488, 378.605 488.870, 378.035 489.934 M 364.930 511.584 C 363.977 512.733, 363.904 513.625, 364.667 514.834 C 365.568 516.262, 367.759 516.500, 380 516.500 C 392.241 516.500, 394.432 516.262, 395.333 514.834 C 396.096 513.625, 396.023 512.733, 395.070 511.584 C 393.987 510.279, 391.330 510, 380 510 C 368.670 510, 366.013 510.279, 364.930 511.584 M 475.468 527.250 C 476.383 538.424, 476.604 539, 479.988 539 C 482.782 539, 482.854 538.861, 483.461 532.250 C 483.802 528.538, 484.308 524.038, 484.586 522.250 L 485.091 519 479.941 519 L 474.792 519 475.468 527.250 M 509.872 522.976 C 501.755 524.420, 498.142 527.520, 497.305 533.760 C 496.185 542.116, 501.276 546.528, 513.256 547.580 C 522.209 548.366, 524 548.853, 524 550.500 C 524 551.304, 522.819 552.258, 521.375 552.621 C 518.537 553.333, 502.958 552.473, 499.193 551.397 C 496.964 550.759, 496.897 550.919, 497.193 556.106 L 497.500 561.475 501.500 562.180 C 507.892 563.306, 521.920 563.104, 526.193 561.824 C 536.632 558.696, 538.271 544.962, 528.809 539.898 C 527.690 539.299, 522.970 538.462, 518.321 538.038 C 509.776 537.259, 506.654 535.946, 508.635 533.965 C 510.013 532.587, 516.857 532.327, 525.750 533.315 L 533 534.121 533 529.148 L 533 524.176 529.250 523.617 C 521.189 522.416, 514.300 522.188, 509.872 522.976 M 580.250 522.712 L 571 523.075 571 542.413 L 571 561.750 574.125 562.375 C 580.717 563.693, 599.822 563.055, 604.018 561.376 C 611.185 558.509, 613.402 549.970, 608.214 545.217 L 605.427 542.664 607.839 540.252 C 609.929 538.162, 610.167 537.233, 609.624 533.271 C 609.279 530.758, 608.468 528.064, 607.822 527.285 C 604.515 523.300, 597.004 522.055, 580.250 522.712 M 688.250 522.712 L 679 523.075 679 542.413 L 679 561.750 682.125 562.375 C 688.717 563.693, 707.822 563.055, 712.018 561.376 C 719.185 558.509, 721.402 549.970, 716.214 545.217 L 713.427 542.664 715.839 540.252 C 717.929 538.162, 718.167 537.233, 717.624 533.271 C 717.279 530.758, 716.468 528.064, 715.822 527.285 C 712.515 523.300, 705.004 522.055, 688.250 522.712 M 390.667 523.667 C 390.300 524.033, 390 525.137, 390 526.119 C 390 527.611, 388.972 527.954, 383.750 528.202 C 377.829 528.484, 377.500 528.632, 377.500 531 C 377.500 533.333, 377.900 533.533, 383.500 534 C 389.419 534.493, 389.504 534.544, 389.813 537.750 L 390.127 541 384.686 541 C 378.686 541, 376.410 542.565, 377.485 545.952 C 378.035 547.685, 378.971 548, 383.567 548 C 387.672 548, 389 548.358, 389 549.465 C 389 551.727, 385.659 553, 379.721 553 C 371.505 553, 370.800 551.777, 370.212 536.502 L 369.730 524 364.237 524 L 358.744 524 359.185 537.838 C 359.704 554.084, 360.869 557.114, 368.023 560.818 C 371.963 562.859, 373.608 563.093, 381.738 562.773 C 391.670 562.381, 394.191 561.301, 398.438 555.617 C 400.250 553.193, 400.541 551.124, 400.841 538.572 L 401.181 524.286 397.966 523.643 C 393.849 522.820, 391.506 522.827, 390.667 523.667 M 298 543 L 298 562 303.500 562 L 309 562 309 551.280 L 309 540.559 313.678 547.280 C 317.843 553.262, 318.718 554, 321.644 554 C 324.531 554, 325.453 553.259, 329.216 547.915 L 333.500 541.830 334 551.665 L 334.500 561.500 339.750 561.802 L 345 562.105 345 543.052 L 345 524 339.526 524 L 334.052 524 328 533 C 324.672 537.950, 321.793 542, 321.603 542 C 321.413 542, 318.612 537.957, 315.379 533.016 L 309.500 524.031 303.750 524.016 L 298 524 298 543 M 415 543 L 415 562 420.465 562 L 425.930 562 426.215 551.844 L 426.500 541.689 430.814 547.844 C 434.612 553.265, 435.521 554, 438.419 554 C 441.321 554, 442.230 553.260, 446.105 547.750 L 450.500 541.500 450.785 551.750 L 451.070 562 456.535 562 L 462 562 462 543 L 462 524 456.569 524 L 451.138 524 445.407 532.250 C 442.256 536.788, 439.381 540.846, 439.019 541.269 C 438.658 541.692, 435.554 537.979, 432.122 533.019 L 425.883 524 420.441 524 L 415 524 415 543 M 630.213 541.526 C 625.696 551.212, 622 559.781, 622 560.569 C 622 561.619, 623.327 562, 626.987 562 C 631.740 562, 632.041 561.837, 633.436 558.500 L 634.898 555 644.248 555 L 653.598 555 654.864 558.500 C 656.077 561.856, 656.332 562, 661.065 562 C 665.275 562, 666 561.716, 666 560.068 C 666 559.006, 662.430 550.569, 658.066 541.318 L 650.132 524.500 644.279 524.208 L 638.427 523.916 630.213 541.526 M 729 525.270 C 729 526.023, 732.375 531.542, 736.500 537.533 L 744 548.427 744 555.213 L 744 562 749.500 562 L 755 562 755 554.692 L 755 547.384 762 537.279 C 765.850 531.722, 769 526.460, 769 525.587 C 769 524.336, 767.871 524, 763.661 524 L 758.322 524 753.929 531 C 751.513 534.850, 749.304 537.987, 749.018 537.971 C 748.733 537.955, 746.668 534.917, 744.429 531.221 L 740.358 524.500 734.679 524.200 C 730.392 523.974, 729 524.236, 729 525.270 M 584.750 532.716 C 582.617 533.039, 582 533.679, 582 535.566 C 582 537.926, 582.226 538, 589.418 538 C 597.734 538, 600 537.436, 600 535.368 C 600 532.606, 593.239 531.430, 584.750 532.716 M 692.750 532.716 C 690.617 533.039, 690 533.679, 690 535.566 C 690 537.926, 690.226 538, 697.418 538 C 705.734 538, 708 537.436, 708 535.368 C 708 532.606, 701.239 531.430, 692.750 532.716 M 642.011 539.333 C 640.813 541.991, 640.049 544.382, 640.312 544.646 C 640.576 544.909, 642.560 544.985, 644.721 544.813 L 648.649 544.500 646.419 539.500 L 644.189 534.500 642.011 539.333 M 582 550.401 L 582 553 591.031 553 C 598.249 553, 600.182 552.690, 600.655 551.457 C 601.613 548.959, 600.317 548.519, 590.918 548.151 L 582 547.801 582 550.401 M 690 550.401 L 690 553 699.031 553 C 706.249 553, 708.182 552.690, 708.655 551.457 C 709.613 548.959, 708.317 548.519, 698.918 548.151 L 690 547.801 690 550.401" stroke="none" fill="#9dcbe4" fill-rule="evenodd"/><path d="M 0 500.001 L 0 1000.002 500.250 999.751 L 1000.500 999.500 1000.751 499.750 L 1001.002 0 500.501 0 L 0 0 0 500.001 M 0.496 500.500 C 0.496 775.500, 0.610 887.851, 0.750 750.168 C 0.890 612.486, 0.890 387.486, 0.750 250.168 C 0.610 112.851, 0.496 225.500, 0.496 500.500 M 496 364.437 C 471.327 369.673, 453.459 383.128, 443.770 403.766 C 435.756 420.834, 434.903 438.570, 441.159 458 C 443.961 466.701, 451.282 480.846, 455.459 485.627 C 458.308 488.889, 459.130 489.325, 460.671 488.393 C 463.588 486.627, 463.353 484.499, 459.672 479.332 C 454.600 472.213, 449.319 461.135, 446.781 452.291 C 443.621 441.281, 443.652 425.316, 446.852 415.500 C 449.432 407.587, 455.084 397.526, 460.444 391.308 C 469.208 381.138, 487.291 372.571, 502.794 371.243 C 526.389 369.223, 545.266 375.299, 559.577 389.524 C 579.450 409.275, 583.600 440.075, 570.017 467.019 C 568.775 469.484, 565.788 474.486, 563.379 478.134 C 560.971 481.783, 559 485.014, 559 485.313 C 559 486.433, 562.197 489, 563.592 489 C 565.620 489, 573.726 476.141, 578.089 466 C 583.008 454.568, 585.003 445.111, 584.985 433.303 C 584.967 420.980, 583.070 412.801, 577.726 402 C 574.342 395.160, 571.761 391.742, 564.510 384.500 C 554.391 374.393, 546.314 369.731, 532.408 365.974 C 522.308 363.245, 505.051 362.516, 496 364.437 M 501.059 386.495 C 477.283 391.875, 461.147 413.746, 463.472 437.440 C 465.001 453.019, 468.914 459.554, 490.455 482.500 C 506.216 499.288, 506.471 499.503, 510.957 499.775 L 515.500 500.051 531.348 483.230 C 555.408 457.695, 558.500 451.918, 558.500 432.500 C 558.500 421.883, 558.372 421.231, 554.809 413.770 C 544.802 392.815, 522.699 381.598, 501.059 386.495 M 499.500 394.356 C 488.399 398.003, 479.549 405.683, 474.727 415.854 C 467.708 430.658, 470.073 448.234, 480.827 461.189 C 482.968 463.768, 490.745 472.171, 498.110 479.861 L 511.500 493.844 527.734 476.327 C 545.054 457.638, 548.907 451.800, 551.212 440.758 C 552.682 433.712, 551.163 423.221, 547.523 415.269 C 544.232 408.080, 536.447 400.580, 528.241 396.693 C 522.420 393.936, 520.271 393.469, 512.500 393.271 C 507.131 393.135, 501.886 393.572, 499.500 394.356 M 494.200 423.200 C 491.214 426.186, 494.526 430.859, 498.224 428.880 C 501.172 427.302, 499.843 422, 496.500 422 C 495.895 422, 494.860 422.540, 494.200 423.200 M 523.571 423.571 C 521.528 425.615, 521.589 426.318, 524 428.500 C 525.930 430.247, 526.070 430.247, 528 428.500 C 529.100 427.505, 530 426.342, 530 425.916 C 530 424.871, 527.068 422, 526 422 C 525.529 422, 524.436 422.707, 523.571 423.571 M 504.500 438.492 C 489.786 443.658, 489.057 465.581, 503.384 472.087 C 510.623 475.374, 517.757 474.170, 523.845 468.633 C 527.500 465.309, 529.286 460.998, 529.286 455.500 C 529.286 447.539, 525.321 441.703, 517.768 438.548 C 513.253 436.661, 509.757 436.647, 504.500 438.492 M 503.705 447.786 C 495.641 456.203, 503.181 468.998, 514.382 465.905 C 522.111 463.771, 524.650 453.804, 518.923 448.077 C 516.353 445.507, 515.065 445, 511.110 445 C 507.234 445, 505.890 445.506, 503.705 447.786 M 508.596 452.306 C 504.846 455.048, 508.833 461.848, 512.750 459.393 C 514.920 458.032, 515.554 454.373, 513.954 452.445 C 512.468 450.654, 510.910 450.614, 508.596 452.306 M 375.672 484.043 C 374.103 485.278, 372.807 487.554, 372.399 489.793 C 371.994 492.017, 370.223 495.143, 367.975 497.604 C 365.914 499.862, 363.921 502.674, 363.546 503.854 C 363.172 505.034, 362.518 506, 362.093 506 C 360.931 506, 359 510.753, 359 513.613 C 359 514.998, 359.466 517.002, 360.035 518.066 C 361.003 519.874, 362.308 520, 380 520 C 397.692 520, 398.997 519.874, 399.965 518.066 C 401.696 514.830, 401.132 510.568, 398.500 507 C 397.125 505.136, 396 503.115, 396 502.507 C 396 501.900, 394.266 499.599, 392.147 497.393 C 389.779 494.929, 388.031 491.978, 387.610 489.735 C 386.890 485.899, 383.054 482, 380 482 C 379.048 482, 377.101 482.919, 375.672 484.043 M 378.035 489.934 C 377.466 490.998, 377 493.136, 377 494.684 C 377 496.700, 375.935 498.412, 373.250 500.712 L 369.500 503.925 380 503.921 L 390.500 503.917 386.750 500.602 C 384.155 498.309, 383 496.454, 383 494.578 C 383 491.515, 381.397 488, 380 488 C 379.489 488, 378.605 488.870, 378.035 489.934 M 364.930 511.584 C 363.977 512.733, 363.904 513.625, 364.667 514.834 C 365.568 516.262, 367.759 516.500, 380 516.500 C 392.241 516.500, 394.432 516.262, 395.333 514.834 C 396.096 513.625, 396.023 512.733, 395.070 511.584 C 393.987 510.279, 391.330 510, 380 510 C 368.670 510, 366.013 510.279, 364.930 511.584 M 475.468 527.250 C 476.383 538.424, 476.604 539, 479.988 539 C 482.782 539, 482.854 538.861, 483.461 532.250 C 483.802 528.538, 484.308 524.038, 484.586 522.250 L 485.091 519 479.941 519 L 474.792 519 475.468 527.250 M 509.872 522.976 C 501.755 524.420, 498.142 527.520, 497.305 533.760 C 496.185 542.116, 501.276 546.528, 513.256 547.580 C 522.209 548.366, 524 548.853, 524 550.500 C 524 551.304, 522.819 552.258, 521.375 552.621 C 518.537 553.333, 502.958 552.473, 499.193 551.397 C 496.964 550.759, 496.897 550.919, 497.193 556.106 L 497.500 561.475 501.500 562.180 C 507.892 563.306, 521.920 563.104, 526.193 561.824 C 536.632 558.696, 538.271 544.962, 528.809 539.898 C 527.690 539.299, 522.970 538.462, 518.321 538.038 C 509.776 537.259, 506.654 535.946, 508.635 533.965 C 510.013 532.587, 516.857 532.327, 525.750 533.315 L 533 534.121 533 529.148 L 533 524.176 529.250 523.617 C 521.189 522.416, 514.300 522.188, 509.872 522.976 M 580.250 522.712 L 571 523.075 571 542.413 L 571 561.750 574.125 562.375 C 580.717 563.693, 599.822 563.055, 604.018 561.376 C 611.185 558.509, 613.402 549.970, 608.214 545.217 L 605.427 542.664 607.839 540.252 C 609.929 538.162, 610.167 537.233, 609.624 533.271 C 609.279 530.758, 608.468 528.064, 607.822 527.285 C 604.515 523.300, 597.004 522.055, 580.250 522.712 M 688.250 522.712 L 679 523.075 679 542.413 L 679 561.750 682.125 562.375 C 688.717 563.693, 707.822 563.055, 712.018 561.376 C 719.185 558.509, 721.402 549.970, 716.214 545.217 L 713.427 542.664 715.839 540.252 C 717.929 538.162, 718.167 537.233, 717.624 533.271 C 717.279 530.758, 716.468 528.064, 715.822 527.285 C 712.515 523.300, 705.004 522.055, 688.250 522.712 M 390.667 523.667 C 390.300 524.033, 390 525.137, 390 526.119 C 390 527.611, 388.972 527.954, 383.750 528.202 C 377.829 528.484, 377.500 528.632, 377.500 531 C 377.500 533.333, 377.900 533.533, 383.500 534 C 389.419 534.493, 389.504 534.544, 389.813 537.750 L 390.127 541 384.686 541 C 378.686 541, 376.410 542.565, 377.485 545.952 C 378.035 547.685, 378.971 548, 383.567 548 C 387.672 548, 389 548.358, 389 549.465 C 389 551.727, 385.659 553, 379.721 553 C 371.505 553, 370.800 551.777, 370.212 536.502 L 369.730 524 364.237 524 L 358.744 524 359.185 537.838 C 359.704 554.084, 360.869 557.114, 368.023 560.818 C 371.963 562.859, 373.608 563.093, 381.738 562.773 C 391.670 562.381, 394.191 561.301, 398.438 555.617 C 400.250 553.193, 400.541 551.124, 400.841 538.572 L 401.181 524.286 397.966 523.643 C 393.849 522.820, 391.506 522.827, 390.667 523.667 M 298 543 L 298 562 303.500 562 L 309 562 309 551.280 L 309 540.559 313.678 547.280 C 317.843 553.262, 318.718 554, 321.644 554 C 324.531 554, 325.453 553.259, 329.216 547.915 L 333.500 541.830 334 551.665 L 334.500 561.500 339.750 561.802 L 345 562.105 345 543.052 L 345 524 339.526 524 L 334.052 524 328 533 C 324.672 537.950, 321.793 542, 321.603 542 C 321.413 542, 318.612 537.957, 315.379 533.016 L 309.500 524.031 303.750 524.016 L 298 524 298 543 M 415 543 L 415 562 420.465 562 L 425.930 562 426.215 551.844 L 426.500 541.689 430.814 547.844 C 434.612 553.265, 435.521 554, 438.419 554 C 441.321 554, 442.230 553.260, 446.105 547.750 L 450.500 541.500 450.785 551.750 L 451.070 562 456.535 562 L 462 562 462 543 L 462 524 456.569 524 L 451.138 524 445.407 532.250 C 442.256 536.788, 439.381 540.846, 439.019 541.269 C 438.658 541.692, 435.554 537.979, 432.122 533.019 L 425.883 524 420.441 524 L 415 524 415 543 M 630.213 541.526 C 625.696 551.212, 622 559.781, 622 560.569 C 622 561.619, 623.327 562, 626.987 562 C 631.740 562, 632.041 561.837, 633.436 558.500 L 634.898 555 644.248 555 L 653.598 555 654.864 558.500 C 656.077 561.856, 656.332 562, 661.065 562 C 665.275 562, 666 561.716, 666 560.068 C 666 559.006, 662.430 550.569, 658.066 541.318 L 650.132 524.500 644.279 524.208 L 638.427 523.916 630.213 541.526 M 729 525.270 C 729 526.023, 732.375 531.542, 736.500 537.533 L 744 548.427 744 555.213 L 744 562 749.500 562 L 755 562 755 554.692 L 755 547.384 762 537.279 C 765.850 531.722, 769 526.460, 769 525.587 C 769 524.336, 767.871 524, 763.661 524 L 758.322 524 753.929 531 C 751.513 534.850, 749.304 537.987, 749.018 537.971 C 748.733 537.955, 746.668 534.917, 744.429 531.221 L 740.358 524.500 734.679 524.200 C 730.392 523.974, 729 524.236, 729 525.270 M 584.750 532.716 C 582.617 533.039, 582 533.679, 582 535.566 C 582 537.926, 582.226 538, 589.418 538 C 597.734 538, 600 537.436, 600 535.368 C 600 532.606, 593.239 531.430, 584.750 532.716 M 692.750 532.716 C 690.617 533.039, 690 533.679, 690 535.566 C 690 537.926, 690.226 538, 697.418 538 C 705.734 538, 708 537.436, 708 535.368 C 708 532.606, 701.239 531.430, 692.750 532.716 M 642.011 539.333 C 640.813 541.991, 640.049 544.382, 640.312 544.646 C 640.576 544.909, 642.560 544.985, 644.721 544.813 L 648.649 544.500 646.419 539.500 L 644.189 534.500 642.011 539.333 M 582 550.401 L 582 553 591.031 553 C 598.249 553, 600.182 552.690, 600.655 551.457 C 601.613 548.959, 600.317 548.519, 590.918 548.151 L 582 547.801 582 550.401 M 690 550.401 L 690 553 699.031 553 C 706.249 553, 708.182 552.690, 708.655 551.457 C 709.613 548.959, 708.317 548.519, 698.918 548.151 L 690 547.801 690 550.401 M 446 600.520 C 446 600.806, 447.163 602.882, 448.585 605.134 C 457.153 618.708, 473.253 629.764, 491.500 634.605 C 501.577 637.279, 521.688 637.088, 532.175 634.220 C 544.133 630.949, 554.329 625.417, 562.580 617.722 C 569.143 611.602, 576 602.970, 576 600.829 C 576 600.373, 574.313 600.002, 572.250 600.004 C 568.894 600.007, 568.060 600.578, 564.310 605.433 C 551.053 622.599, 528.924 630.994, 502.825 628.759 C 485.747 627.297, 468.307 618.409, 458.549 606.196 C 454.044 600.557, 453.257 600, 449.799 600 C 447.710 600, 446 600.234, 446 600.520" stroke="none" fill="#fbfbfb" fill-rule="evenodd"/></svg>