<?xml version="1.0" ?>
<!DOCTYPE svg  PUBLIC '-//W3C//DTD SVG 1.1//EN'  'http://www.w3.org/Graphics/SVG/1.1/DTD/svg11.dtd'>
<!-- Uploaded to: SVG Repo, www.svgrepo.com, Generator: SVG Repo Mixer Tools -->
<svg width="800px" height="800px" viewBox="0 0 512 512" enable-background="new 0 0 512 512" version="1.1" xml:space="preserve" xmlns="http://www.w3.org/2000/svg" xmlns:xlink="http://www.w3.org/1999/xlink">
<g id="_x30_1"/>
<g id="_x30_2"/>
<g id="_x30_3"/>
<g id="_x30_4"/>
<g id="_x30_5"/>
<g id="_x30_6"/>
<g id="_x30_7"/>
<g id="_x30_8"/>
<g id="_x30_9"/>
<g id="_x31_0"/>
<g id="_x31_1"/>
<g id="_x31_2"/>
<g id="_x31_3"/>
<g id="_x31_4"/>
<g id="_x31_5"/>
<g id="_x31_6"/>
<g id="_x31_7"/>
<g id="_x31_8"/>
<g id="_x31_9"/>
<g id="_x32_0"/>
<g id="_x32_1"/>
<g id="_x32_2"/>
<g id="_x32_3"/>
<g id="_x32_4"/>
<g id="_x32_5"/>
<g id="_x32_6"/>
<g id="_x32_7"/>
<g id="_x32_8"/>
<g id="_x32_9"/>
<g id="_x33_0"/>
<g id="_x33_1"/>
<g id="_x33_2"/>
<g id="_x33_3"/>
<g id="_x33_4"/>
<g id="_x33_5"/>
<g id="_x33_6"/>
<g id="_x33_7"/>
<g id="_x33_8"/>
<g id="_x33_9"/>
<g id="_x34_0"/>
<g id="_x34_1"/>
<g id="_x34_2"/>
<g id="_x34_3"/>
<g id="_x34_4"/>
<g id="_x34_5"/>
<g id="_x34_6"/>
<g id="_x34_7"/>
<g id="_x34_8"/>
<g id="_x34_9"/>
<g id="_x35_0">
<g>
<path d="    M299.513,154.229v185.874c0,26.835-21.948,48.783-48.782,48.783l0,0c-26.863,0-48.811-21.948-48.811-48.783V154.229H299.513z" fill="none" stroke="#000000" stroke-linecap="round" stroke-linejoin="round" stroke-miterlimit="10" stroke-width="20.1764"/>
<path d="    M185.831,126.708h129.8c4.829,0,8.802,3.973,8.802,8.831v9.859c0,4.858-3.973,8.831-8.802,8.831h-129.8    c-4.858,0-8.831-3.973-8.831-8.831v-9.859C177,130.681,180.972,126.708,185.831,126.708L185.831,126.708z" fill="none" stroke="#000000" stroke-linecap="round" stroke-linejoin="round" stroke-miterlimit="10" stroke-width="20.1764"/>
<line fill="none" stroke="#000000" stroke-linecap="round" stroke-linejoin="round" stroke-miterlimit="10" stroke-width="20.1764" x1="251.759" x2="251.759" y1="500" y2="394.088"/>
<line fill="none" stroke="#000000" stroke-linecap="round" stroke-linejoin="round" stroke-miterlimit="10" stroke-width="20.1764" x1="275.136" x2="299.513" y1="190.038" y2="190.038"/>
<line fill="none" stroke="#000000" stroke-linecap="round" stroke-linejoin="round" stroke-miterlimit="10" stroke-width="20.1764" x1="255.389" x2="299.513" y1="222.589" y2="222.589"/>
<line fill="none" stroke="#000000" stroke-linecap="round" stroke-linejoin="round" stroke-miterlimit="10" stroke-width="20.1764" x1="275.136" x2="299.513" y1="255.111" y2="255.111"/>
<line fill="none" stroke="#000000" stroke-linecap="round" stroke-linejoin="round" stroke-miterlimit="10" stroke-width="20.1764" x1="255.389" x2="299.513" y1="287.662" y2="287.662"/>
<line fill="none" stroke="#000000" stroke-linecap="round" stroke-linejoin="round" stroke-miterlimit="10" stroke-width="20.1764" x1="275.136" x2="299.513" y1="320.185" y2="320.185"/>
<path d="    M266.791,42.373v84.335H244.3V42.373c3.515,0.515,7.288,0.772,11.26,0.772C259.504,43.145,263.276,42.888,266.791,42.373    L266.791,42.373z M266.791,154.229v0.743H244.3v-0.743H266.791z" fill="none" stroke="#000000" stroke-linecap="round" stroke-linejoin="round" stroke-miterlimit="10" stroke-width="20.1764"/>
<path d="    M255.561,43.145c18.203,0,33.093-5.944,33.093-13.232s-14.89-13.232-33.093-13.232c-18.233,0-33.093,5.944-33.093,13.232    S237.328,43.145,255.561,43.145L255.561,43.145z" fill="none" stroke="#000000" stroke-linecap="round" stroke-linejoin="round" stroke-miterlimit="10" stroke-width="20.1764"/>
</g>
<g>
<path d="    M623.626,187h327.615c41.123,0,74.759,33.637,74.759,74.761l0,0c0,41.096-33.636,74.732-74.759,74.732H623.626    c-41.123,0-74.759-33.637-74.759-74.732l0,0C548.867,220.637,582.503,187,623.626,187L623.626,187z" fill="none" stroke="#000000" stroke-linecap="round" stroke-linejoin="round" stroke-miterlimit="10" stroke-width="20.1478"/>
<path d="    M734.336,187h106.195c19.775,0,35.979,16.175,35.979,35.98v77.533c0,19.806-16.204,35.98-35.979,35.98H734.336    c-19.776,0-35.979-16.175-35.979-35.98V222.98C698.357,203.175,714.561,187,734.336,187L734.336,187z" fill="none" stroke="#000000" stroke-linecap="round" stroke-linejoin="round" stroke-miterlimit="10" stroke-width="20.1478"/>
<line fill="none" stroke="#000000" stroke-linecap="round" stroke-linejoin="round" stroke-miterlimit="10" stroke-width="20.1478" x1="922.578" x2="922.578" y1="236.241" y2="236.012"/>
<line fill="none" stroke="#000000" stroke-linecap="round" stroke-linejoin="round" stroke-miterlimit="10" stroke-width="20.1478" x1="927.007" x2="927.007" y1="298.599" y2="298.341"/>
<line fill="none" stroke="#000000" stroke-linecap="round" stroke-linejoin="round" stroke-miterlimit="10" stroke-width="20.1478" x1="980.076" x2="980.076" y1="258.36" y2="258.132"/>
<line fill="none" stroke="#000000" stroke-linecap="round" stroke-linejoin="round" stroke-miterlimit="10" stroke-width="20.1478" x1="597.992" x2="597.992" y1="278.25" y2="277.994"/>
<line fill="none" stroke="#000000" stroke-linecap="round" stroke-linejoin="round" stroke-miterlimit="10" stroke-width="20.1478" x1="643.859" x2="643.859" y1="239.07" y2="238.813"/>
<line fill="none" stroke="#000000" stroke-linecap="round" stroke-linejoin="round" stroke-miterlimit="10" stroke-width="20.1478" x1="650.29" x2="650.29" y1="299.399" y2="299.142"/>
</g>
<g>
<path d="    M1304.04,86.298h15.975c32.979,0,59.985,26.978,59.985,59.986v111.941c0,32.979-27.006,59.986-59.985,59.986h-15.975    c-33.007,0-59.984-27.007-59.984-59.986V146.284C1244.056,113.276,1271.033,86.298,1304.04,86.298L1304.04,86.298z" fill="none" stroke="#000000" stroke-linecap="round" stroke-linejoin="round" stroke-miterlimit="10" stroke-width="20.1478"/>
<path d="    M1313.014,342.989L1313.014,342.989c7.716,0,14.003,6.288,14.003,14.004v41.981c0,7.688-6.287,13.975-14.003,13.975l0,0    c-7.688,0-13.975-6.287-13.975-13.975v-41.981C1299.039,349.277,1305.326,342.989,1313.014,342.989L1313.014,342.989z" fill="none" stroke="#000000" stroke-linecap="round" stroke-linejoin="round" stroke-miterlimit="10" stroke-width="20.1478"/>
<path d="    M1308.813,501c-22.291-40.695,14.518-43.64,1.829-88.279" fill="none" stroke="#000000" stroke-linecap="round" stroke-linejoin="round" stroke-miterlimit="10" stroke-width="20.1478"/>
<polyline fill="none" points="    1259.602,163.26 1350.564,163.26 1380,163.26   " stroke="#000000" stroke-linecap="round" stroke-linejoin="round" stroke-miterlimit="10" stroke-width="20.1478"/>
<line fill="none" stroke="#000000" stroke-linecap="round" stroke-linejoin="round" stroke-miterlimit="10" stroke-width="20.1478" x1="1354.994" x2="1380" y1="197.239" y2="197.239"/>
<polyline fill="none" points="    1335.019,233.591 1368.997,233.591 1380,233.591   " stroke="#000000" stroke-linecap="round" stroke-linejoin="round" stroke-miterlimit="10" stroke-width="20.1478"/>
<path d="    M1313.414,76.724c11.659,0,21.176-13.689,21.176-30.465c0-16.804-9.517-30.493-21.176-30.493    c-11.66,0-21.176,13.689-21.176,30.493C1292.238,63.035,1301.754,76.724,1313.414,76.724L1313.414,76.724z" fill="none" stroke="#000000" stroke-linecap="round" stroke-linejoin="round" stroke-miterlimit="10" stroke-width="20.1478"/>
</g>
<g>
<path d="    M1901.082,143.292c76.22,21.157,132.188,91.05,132.188,174.055c0,99.76-80.86,180.653-180.62,180.653    C1752.861,498,1672,417.107,1672,317.347c0-83.939,57.233-154.494,134.81-174.778V64.96h94.272V143.292z" fill="none" stroke="#000000" stroke-linecap="round" stroke-linejoin="round" stroke-miterlimit="10" stroke-width="20.1764"/>
<path d="    M1798.973,15.23h109.945c10.098,0,18.325,8.228,18.325,18.324v13.081c0,10.096-8.228,18.324-18.325,18.324h-109.945    c-10.097,0-18.323-8.229-18.323-18.324V33.555C1780.649,23.458,1788.876,15.23,1798.973,15.23L1798.973,15.23z" fill="none" stroke="#000000" stroke-linecap="round" stroke-linejoin="round" stroke-miterlimit="10" stroke-width="20.1764"/>
<line fill="none" stroke="#000000" stroke-linecap="round" stroke-linejoin="round" stroke-miterlimit="10" stroke-width="20.1764" x1="1673.085" x2="1715.852" y1="317.347" y2="317.347"/>
<line fill="none" stroke="#000000" stroke-linecap="round" stroke-linejoin="round" stroke-miterlimit="10" stroke-width="20.1764" x1="1751.023" x2="1788.968" y1="317.347" y2="317.347"/>
<line fill="none" stroke="#000000" stroke-linecap="round" stroke-linejoin="round" stroke-miterlimit="10" stroke-width="20.1764" x1="1996.411" x2="2033.27" y1="317.347" y2="317.347"/>
<line fill="none" stroke="#000000" stroke-linecap="round" stroke-linejoin="round" stroke-miterlimit="10" stroke-width="20.1764" x1="1836.104" x2="1874.017" y1="317.347" y2="317.347"/>
<line fill="none" stroke="#000000" stroke-linecap="round" stroke-linejoin="round" stroke-miterlimit="10" stroke-width="20.1764" x1="1921.153" x2="1959.068" y1="317.347" y2="317.347"/>
</g>
<g>
<path d="    M2383.903,81.701c91.603-163.988,299.592,18.78,171.549,160.75c-86.922,100.73-24.991,176.822-86.245,255.122    c-14.601-77.123-25.786-137.143-85.304-140.027c-59.518,2.885-70.732,62.905-85.332,140.027    c-61.226-78.3,0.677-154.392-86.216-255.122C2084.312,100.48,2292.272-82.287,2383.903,81.701L2383.903,81.701z" fill="none" stroke="#000000" stroke-linecap="round" stroke-linejoin="round" stroke-miterlimit="10" stroke-width="20.1764"/>
<path d="    M2355.587,136.01c3.503-23.667,28.316-54.309,28.316-54.309s24.726,26.228,31.407,55.222" fill="none" stroke="#000000" stroke-linecap="round" stroke-linejoin="round" stroke-miterlimit="10" stroke-width="20.1764"/>
<path d="    M2215.446,148.579c0,0-12.569-72.736,51.217-73.649" fill="none" stroke="#000000" stroke-linecap="round" stroke-linejoin="round" stroke-miterlimit="10" stroke-width="20.1764"/>
</g>
<g>
<path d="    M2345.001,650.922l169.687,124.174c24.484,17.938,29.867,52.657,11.929,77.169l0,0c-17.938,24.484-52.654,29.869-77.138,11.93    l-169.687-124.174L2345.001,650.922z" fill="none" stroke="#000000" stroke-linecap="round" stroke-linejoin="round" stroke-miterlimit="10" stroke-width="20.1764"/>
<path d="    M2243.916,736.333l7.495-10.233l-82.374-60.273c-60.776-44.504,9.104-150.383,74.848-102.278l82.375,60.272l4.372-5.979    c3.242-4.433,9.521-5.414,13.952-2.172l9.014,6.604c4.433,3.242,5.386,9.52,2.143,13.953l-86.717,118.492    c-3.243,4.433-9.52,5.415-13.953,2.172l-8.983-6.604C2241.654,747.043,2240.672,740.766,2243.916,736.333L2243.916,736.333z" fill="none" stroke="#000000" stroke-linecap="round" stroke-linejoin="round" stroke-miterlimit="10" stroke-width="20.1764"/>
<line fill="none" stroke="#000000" stroke-linecap="round" stroke-linejoin="round" stroke-miterlimit="10" stroke-width="20.1764" x1="2559.46" x2="2532.061" y1="874.846" y2="854.766"/>
<line fill="none" stroke="#000000" stroke-linecap="round" stroke-linejoin="round" stroke-miterlimit="10" stroke-width="20.1764" x1="2361.393" x2="2377.695" y1="697.123" y2="674.841"/>
<line fill="none" stroke="#000000" stroke-linecap="round" stroke-linejoin="round" stroke-miterlimit="10" stroke-width="20.1764" x1="2377.934" x2="2407.414" y1="736.868" y2="696.587"/>
<line fill="none" stroke="#000000" stroke-linecap="round" stroke-linejoin="round" stroke-miterlimit="10" stroke-width="20.1764" x1="2420.801" x2="2437.104" y1="740.617" y2="718.334"/>
<line fill="none" stroke="#000000" stroke-linecap="round" stroke-linejoin="round" stroke-miterlimit="10" stroke-width="20.1764" x1="2437.311" x2="2466.821" y1="780.362" y2="740.052"/>
<line fill="none" stroke="#000000" stroke-linecap="round" stroke-linejoin="round" stroke-miterlimit="10" stroke-width="20.1764" x1="2480.21" x2="2496.512" y1="784.081" y2="761.798"/>
<path d="    M2579.837,1026.956c62.949,1.428,11.899-98.708,2.023-120.01C2570.229,930.24,2517.751,1025.557,2579.837,1026.956    L2579.837,1026.956z" fill="none" stroke="#000000" stroke-linecap="round" stroke-linejoin="round" stroke-miterlimit="10" stroke-width="20.1764"/>
</g>
<g>
<path d="    M1816.979,745.55c0.497,3.414,0.76,6.945,0.76,10.535c0,30.087-17.51,54.484-39.075,54.484c-21.564,0-39.045-24.396-39.045-54.484    c0-4.348,0.351-8.609,1.051-12.665c11.731,7.062,25.446,11.119,40.066,11.119l0,0    C1793.78,754.538,1806.123,751.299,1816.979,745.55L1816.979,745.55z" fill="none" stroke="#000000" stroke-linecap="round" stroke-linejoin="round" stroke-miterlimit="10" stroke-width="20.1478"/>
<path d="    M1969.834,835.228c19.814,0,35.98-16.167,35.98-35.982c0-19.815-16.166-35.982-35.98-35.982s-35.953,16.167-35.953,35.982    C1933.881,819.061,1950.02,835.228,1969.834,835.228L1969.834,835.228z" fill="none" stroke="#000000" stroke-linecap="round" stroke-linejoin="round" stroke-miterlimit="10" stroke-width="20.1478"/>
<path d="    M1858.826,591.145v85.271c0,42.986-35.135,78.122-78.091,78.122l0,0c-42.984,0-78.12-35.136-78.12-78.122v-85.271" fill="none" stroke="#000000" stroke-linecap="round" stroke-linejoin="round" stroke-miterlimit="10" stroke-width="20.1478"/>
<path d="    M1702.615,591.145c12.461,0,22.617-10.156,22.617-22.617s-10.156-22.616-22.617-22.616c-12.46,0-22.615,10.155-22.615,22.616    S1690.155,591.145,1702.615,591.145L1702.615,591.145z" fill="none" stroke="#000000" stroke-linecap="round" stroke-linejoin="round" stroke-miterlimit="10" stroke-width="20.1478"/>
<path d="    M1858.826,592.663c12.461,0,22.615-10.156,22.615-22.617s-10.154-22.616-22.615-22.616c-12.432,0-22.587,10.155-22.587,22.616    S1846.395,592.663,1858.826,592.663L1858.826,592.663z" fill="none" stroke="#000000" stroke-linecap="round" stroke-linejoin="round" stroke-miterlimit="10" stroke-width="20.1478"/>
<path d="    M1969.834,838.846v93.531c0,53.141-43.481,96.623-96.593,96.623l0,0c-53.139,0-96.62-43.482-96.62-96.623V810.043" fill="none" stroke="#000000" stroke-linecap="round" stroke-linejoin="round" stroke-miterlimit="10" stroke-width="20.1478"/>
<line fill="none" stroke="#000000" stroke-linecap="round" stroke-linejoin="round" stroke-miterlimit="10" stroke-width="20.1478" x1="1969.834" x2="1969.834" y1="799.246" y2="799.012"/>
</g>
<g>
<path d="    M1195.44,574.27h58.679l0,0c0,16.646,13.623,30.268,30.269,30.268h73.049c16.676,0,30.299-13.623,30.299-30.268l0,0h58.648    c29.401,0,53.441,24.041,53.441,53.441V978.6c0,29.4-24.04,53.441-53.441,53.441H1195.44c-29.399,0-53.44-24.041-53.44-53.441    V627.711C1142,598.31,1166.041,574.27,1195.44,574.27L1195.44,574.27z" fill="none" stroke="#000000" stroke-linecap="round" stroke-linejoin="round" stroke-miterlimit="10" stroke-width="20.1478"/>
<path d="    M1284.388,544h73.049c16.676,0,30.299,13.623,30.299,30.27l0,0c0,16.646-13.623,30.268-30.299,30.268h-73.049    c-16.646,0-30.269-13.623-30.269-30.268l0,0C1254.119,557.623,1267.742,544,1284.388,544L1284.388,544z" fill="none" stroke="#000000" stroke-linecap="round" stroke-linejoin="round" stroke-miterlimit="10" stroke-width="20.1478"/>
<polygon fill="none" points="    1297.023,667.829 1344.804,667.829 1344.804,699.715 1376.689,699.715 1376.689,747.498 1344.804,747.498 1344.804,779.384     1297.023,779.384 1297.023,747.498 1265.138,747.498 1265.138,699.715 1297.023,699.715   " stroke="#000000" stroke-linecap="round" stroke-linejoin="round" stroke-miterlimit="10" stroke-width="20.1478"/>
<line fill="none" stroke="#000000" stroke-linecap="round" stroke-linejoin="round" stroke-miterlimit="10" stroke-width="20.1478" x1="1204.722" x2="1388.305" y1="846.777" y2="846.777"/>
<line fill="none" stroke="#000000" stroke-linecap="round" stroke-linejoin="round" stroke-miterlimit="10" stroke-width="20.1478" x1="1204.722" x2="1344.146" y1="905.009" y2="905.009"/>
<line fill="none" stroke="#000000" stroke-linecap="round" stroke-linejoin="round" stroke-miterlimit="10" stroke-width="20.1478" x1="1204.722" x2="1344.146" y1="963.271" y2="963.271"/>
</g>
<g>
<path d="    M628.033,965.106h318.685c17.613,0,32.032,14.419,32.032,32.033l0,0c0,17.614-14.419,32.034-32.032,32.034H628.033    c-17.614,0-32.033-14.419-32.033-32.034l0,0C596,979.525,610.419,965.106,628.033,965.106L628.033,965.106z" fill="none" stroke="#000000" stroke-linecap="round" stroke-linejoin="round" stroke-miterlimit="10" stroke-width="20.1478"/>
<path d="    M913.923,791.809c19.724,0,35.842-16.09,35.842-35.844s-16.119-35.873-35.842-35.873c-19.753,0-35.872,16.12-35.872,35.873    S894.169,791.809,913.923,791.809L913.923,791.809z" fill="none" stroke="#000000" stroke-linecap="round" stroke-linejoin="round" stroke-miterlimit="10" stroke-width="20.1478"/>
<rect fill="none" height="166.363" stroke="#000000" stroke-linecap="round" stroke-linejoin="round" stroke-miterlimit="10" stroke-width="20.1478" transform="matrix(0.7311 0.6823 -0.6823 0.7311 649.7386 -363.6611)" width="59.409" x="756.513" y="559.259"/>
<path d="    M680.463,657.52l95.541,89.154l-63.684,68.258l-2.052-1.905l0,0c9.759-10.462-2.784-38.071-28.047-61.634    c-25.234-23.563-53.632-34.173-63.391-23.71l0,0l-2.052-1.905L680.463,657.52z" fill="none" stroke="#000000" stroke-linecap="round" stroke-linejoin="round" stroke-miterlimit="10" stroke-width="20.1478"/>
<path d="    M682.221,751.393c25.263,23.563,37.806,51.172,28.047,61.634c-9.759,10.463-38.158-0.175-63.391-23.739    c-25.263-23.563-37.806-51.143-28.047-61.605C628.589,717.22,656.987,727.83,682.221,751.393L682.221,751.393z" fill="none" stroke="#000000" stroke-linecap="round" stroke-linejoin="round" stroke-miterlimit="10" stroke-width="20.1478"/>
<path d="    M942.146,778.063v187.043h-56.475V778.063c6.565,8.381,16.793,13.746,28.252,13.746S935.581,786.445,942.146,778.063    L942.146,778.063z" fill="none" stroke="#000000" stroke-linecap="round" stroke-linejoin="round" stroke-miterlimit="10" stroke-width="20.1478"/>
<path d="    M836.229,632.403l90.383,90.004c-3.957-1.495-8.235-2.315-12.69-2.315c-19.079,0-34.67,14.918-35.813,33.704l-80.418-80.098    L836.229,632.403z" fill="none" stroke="#000000" stroke-linecap="round" stroke-linejoin="round" stroke-miterlimit="10" stroke-width="20.1478"/>
<line fill="none" stroke="#000000" stroke-linecap="round" stroke-linejoin="round" stroke-miterlimit="10" stroke-width="20.1478" x1="680.932" x2="680.932" y1="900.336" y2="962.703"/>
<line fill="none" stroke="#000000" stroke-linecap="round" stroke-linejoin="round" stroke-miterlimit="10" stroke-width="20.1478" x1="649.749" x2="712.114" y1="898.255" y2="898.255"/>
<line fill="none" stroke="#000000" stroke-linecap="round" stroke-linejoin="round" stroke-miterlimit="10" stroke-width="20.1478" x1="853.756" x2="876.468" y1="547" y2="568.366"/>
</g>
<g>
<path d="    M250.022,546.657L250.022,546.657c33.446,0,60.803,27.357,60.803,60.774v243.186c0,27.388-18.388,50.725-43.405,58.255v106.76    c0,9.539-7.829,17.368-17.398,17.368l0,0c-9.539,0-17.368-7.829-17.368-17.368v-106.76c-25.017-7.53-43.404-30.867-43.404-58.255    V607.431C189.25,574.015,216.607,546.657,250.022,546.657L250.022,546.657z" fill="none" stroke="#000000" stroke-linecap="round" stroke-linejoin="round" stroke-miterlimit="10" stroke-width="20.1764"/>
<line fill="none" stroke="#000000" stroke-linecap="round" stroke-linejoin="round" stroke-miterlimit="10" stroke-width="20.1764" x1="250.022" x2="250.022" y1="619.49" y2="887.754"/>
<line fill="none" stroke="#000000" stroke-linecap="round" stroke-linejoin="round" stroke-miterlimit="10" stroke-width="20.1764" x1="228.665" x2="271.41" y1="693.763" y2="693.763"/>
<line fill="none" stroke="#000000" stroke-linecap="round" stroke-linejoin="round" stroke-miterlimit="10" stroke-width="20.1764" x1="220.476" x2="279.599" y1="739.389" y2="739.389"/>
<line fill="none" stroke="#000000" stroke-linecap="round" stroke-linejoin="round" stroke-miterlimit="10" stroke-width="20.1764" x1="228.665" x2="271.41" y1="786.574" y2="786.574"/>
<path d="    M250.083,619.49c8.909,0,16.168-7.259,16.168-16.168s-7.259-16.168-16.168-16.168c-8.909,0-16.198,7.259-16.198,16.168    S241.174,619.49,250.083,619.49L250.083,619.49z" fill="none" stroke="#000000" stroke-linecap="round" stroke-linejoin="round" stroke-miterlimit="10" stroke-width="20.1764"/>
</g>
<g>
<path d="    M359.7,1303.58c3.583,14.214,5.511,29.393,5.511,45.173c0,80.438-50.17,145.607-112.056,145.607    c-61.916,0-112.086-65.169-112.086-145.607c0-15.781,1.927-30.959,5.511-45.173H359.7L359.7,1303.58z" fill="none" stroke="#000000" stroke-linecap="round" stroke-linejoin="round" stroke-miterlimit="10" stroke-width="20.1764"/>
<path d="    M146.58,1303.58H359.7l63.752-123.352c-113.291-105.192-206.134-119.557-333.578-3.523L146.58,1303.58z" fill="none" stroke="#000000" stroke-linecap="round" stroke-linejoin="round" stroke-miterlimit="10" stroke-width="20.1764"/>
<path d="    M167.9,1443.285H14.016c-11.052-84.112,23.609-147.896,97.269-194.334" fill="none" stroke="#000000" stroke-linecap="round" stroke-linejoin="round" stroke-miterlimit="10" stroke-width="20.1764"/>
<line fill="none" stroke="#000000" stroke-linecap="round" stroke-linejoin="round" stroke-miterlimit="10" stroke-width="20.1764" x1="246.981" x2="246.981" y1="1160.773" y2="1233.141"/>
<line fill="none" stroke="#000000" stroke-linecap="round" stroke-linejoin="round" stroke-miterlimit="10" stroke-width="20.1764" x1="210.784" x2="283.149" y1="1196.972" y2="1196.972"/>
<path d="    M341.359,1443.315l158.523-0.03c11.083-84.112-23.61-147.896-97.27-194.334" fill="none" stroke="#000000" stroke-linecap="round" stroke-linejoin="round" stroke-miterlimit="10" stroke-width="20.1764"/>
<path d="    M141.159,1354.746c50.683-0.06,85.254-20.629,111.996-51.166c32.042,31.079,68.992,49.51,111.935,52.31" fill="none" stroke="#000000" stroke-linecap="round" stroke-linejoin="round" stroke-miterlimit="10" stroke-width="20.1764"/>
<path d="    M76.865,1443.285c-14.094-69.145,9.998-126.544,52.49-178.252" fill="none" stroke="#000000" stroke-linecap="round" stroke-linejoin="round" stroke-miterlimit="10" stroke-width="20.1764"/>
<path d="    M433.419,1443.285c14.093-69.145-9.999-126.544-52.489-178.252" fill="none" stroke="#000000" stroke-linecap="round" stroke-linejoin="round" stroke-miterlimit="10" stroke-width="20.1764"/>
</g>
<g>
<path d="    M697.545,1548.338c73.364,0,133.199-59.836,133.199-133.203c0-73.366-59.835-133.203-133.199-133.203    s-133.199,59.836-133.199,133.203C564.346,1488.501,624.181,1548.338,697.545,1548.338L697.545,1548.338z" fill="none" stroke="#000000" stroke-linecap="round" stroke-linejoin="round" stroke-miterlimit="10" stroke-width="20.1478"/>
<path d="    M930.322,1412.54h83.541c8.69,0,15.775,7.114,15.775,15.775v11.14c0,8.66-7.085,15.775-15.775,15.775    c-63.421,0-126.317,1.283-189.68,1.283c4.257-13.034,6.561-26.944,6.561-41.378c0-73.571-59.63-133.203-133.199-133.203    c-14.463,0-28.372,2.304-41.377,6.561v-159.942c0-17.35,14.171-31.551,31.521-31.551h22.278c17.35,0,31.55,14.201,31.55,31.551    v115.881h144.834c24.172,0,43.971,19.771,43.971,43.974V1412.54L930.322,1412.54z" fill="none" stroke="#000000" stroke-linecap="round" stroke-linejoin="round" stroke-miterlimit="10" stroke-width="20.1478"/>
<path d="    M976.831,1537.082c11.577,0,20.995-9.448,20.995-21.024c0-11.577-9.418-20.995-20.995-20.995    c-11.575,0-21.023,9.418-21.023,20.995C955.807,1527.634,965.255,1537.082,976.831,1537.082L976.831,1537.082z" fill="none" stroke="#000000" stroke-linecap="round" stroke-linejoin="round" stroke-miterlimit="10" stroke-width="20.1478"/>
<polyline fill="none" points="    787.443,1316.837 901.747,1316.837 930.322,1316.837   " stroke="#000000" stroke-linecap="round" stroke-linejoin="round" stroke-miterlimit="10" stroke-width="20.1478"/>
<line fill="none" stroke="#000000" stroke-linecap="round" stroke-linejoin="round" stroke-miterlimit="10" stroke-width="20.1478" x1="700.11" x2="700.11" y1="1281.932" y2="1548.338"/>
<line fill="none" stroke="#000000" stroke-linecap="round" stroke-linejoin="round" stroke-miterlimit="10" stroke-width="20.1478" x1="566.912" x2="830.744" y1="1415.135" y2="1415.135"/>
<line fill="none" stroke="#000000" stroke-linecap="round" stroke-linejoin="round" stroke-miterlimit="10" stroke-width="20.1478" x1="793.507" x2="606.743" y1="1320.161" y2="1510.109"/>
<line fill="none" stroke="#000000" stroke-linecap="round" stroke-linejoin="round" stroke-miterlimit="10" stroke-width="20.1478" x1="606.743" x2="789.222" y1="1320.161" y2="1505.735"/>
<polyline fill="none" points="    873.17,1412.54 987.475,1412.54 1016.05,1412.54   " stroke="#000000" stroke-linecap="round" stroke-linejoin="round" stroke-miterlimit="10" stroke-width="20.1478"/>
<path d="    M566.795,1142.869h89.373v41.086h-89.373c-11.284,0-20.528-9.244-20.528-20.528l0,0    C546.267,1152.112,555.511,1142.869,566.795,1142.869L566.795,1142.869z" fill="none" stroke="#000000" stroke-linecap="round" stroke-linejoin="round" stroke-miterlimit="10" stroke-width="20.1478"/>
</g>
</g>
</svg>