<?xml version="1.0" encoding="utf-8"?>

<!DOCTYPE svg PUBLIC "-//W3C//DTD SVG 1.1//EN" "http://www.w3.org/Graphics/SVG/1.1/DTD/svg11.dtd">
<!-- Uploaded to: SVG Repo, www.svgrepo.com, Generator: SVG Repo Mixer Tools -->
<svg version="1.1" id="_x32_" xmlns="http://www.w3.org/2000/svg" xmlns:xlink="http://www.w3.org/1999/xlink" 
	 width="800px" height="800px" viewBox="0 0 512 512"  xml:space="preserve">
<style type="text/css">
<![CDATA[
	.st0{fill:#000000;}
]]>
</style>
<g>
	<path class="st0" d="M352.398,2.125C342.992,0.719,333.555,0,324.398,0c-26.781,0-46.75,5.891-61.328,10.188
		c-2.266,0.672-4.844,1.422-7.063,2.031c-2.234-0.594-4.781-1.359-7.047-2.031C234.367,5.891,214.398,0,187.617,0
		c-9.172,0-18.609,0.719-28.016,2.125C100.508,11.016,35.555,64.719,46.914,186.781c4.469,48,17.938,88.047,30.984,126.766
		c11.656,34.609,22.641,67.328,25.266,101.859C109.961,505.031,159.586,512,174.648,512c26.922,0,52-18.906,62.359-47.016
		c3.781-10.266,5.75-21.922,7.828-34.266c1.922-11.438,5.844-34.719,11.094-41.375h0.078h0.078
		c5.25,6.656,9.172,29.938,11.094,41.375c2.078,12.344,4.047,24,7.813,34.266C285.367,493.094,310.445,512,337.383,512
		c15.047,0,64.672-6.969,71.453-96.594c2.609-34.531,13.609-67.25,25.266-101.859c13.047-38.719,26.516-78.766,30.984-126.766
		C476.445,64.719,411.477,11.016,352.398,2.125z M424.68,183.031c-8.031,86.281-50.281,149.844-56.297,229.313
		c-3.313,43.813-17.531,59.094-31,59.094c-10.203,0-19.984-8.75-24.313-20.5c-10.031-27.219-5.969-102.156-57.063-102.156
		s-47.016,74.938-57.063,102.156c-4.328,11.75-14.109,20.5-24.297,20.5c-13.5,0-27.719-15.281-31.031-59.094
		c-6.016-79.469-48.266-143.031-56.297-229.313C79.555,99.75,113.727,50.063,165.633,42.25c7.891-1.188,15.188-1.688,21.984-1.688
		c32.156,0,52.703,11.172,68.391,13.063c15.672-1.891,36.219-13.063,68.391-13.063c6.781,0,14.094,0.5,21.984,1.688
		C398.289,50.063,432.43,99.75,424.68,183.031z"/>
	<path class="st0" d="M317.57,98.766c-8.641-6.172-29.156-8.813-54.781,1.016c-1.719-6.406-4.406-10.594-7.438-10.594
		c-3.047,0-5.734,4.188-7.453,10.594c-25.594-9.828-46.125-7.188-54.766-1.016c-9.453,6.766-4.047,16.234,7.438,14.203
		c19.203-3.406,35.719,2.688,45.469,7.75c0.734,12.906,4.594,22.766,9.313,22.766c4.703,0,8.578-9.859,9.313-22.766
		c9.734-5.063,26.266-11.156,45.469-7.75C321.633,115,327.039,105.531,317.57,98.766z"/>
</g>
</svg>